PathFileType	4	(X/Y/Z)	c:/Users/goper/Files/vsCode/490R/osim_files/A01/A01_Fast_04.trc
DataRate	CameraRate	NumFrames	NumMarkers	Units                	OrigDataRate	OrigDataStartFrame	OrigNumFrames
120.00	120.00	4	36	mm	120.0	849	1131
                Frame#	Time	Mobility_markerset:LPSIS			Mobility_markerset:LASIS			Mobility_markerset:LTH1			Mobility_markerset:LTH2			Mobility_markerset:LTH3			Mobility_markerset:LTH4			Mobility_markerset:LLFE			Mobility_markerset:LMFE			Mobility_markerset:LSH1			Mobility_markerset:LSH2			Mobility_markerset:LSH3			Mobility_markerset:LSH4			Mobility_markerset:LLMAL			Mobility_markerset:LMMAL			Mobility_markerset:LCAL			Mobility_markerset:LMTP5			Mobility_markerset:LTOE			Mobility_markerset:LMTP1			Mobility_markerset:RPSIS			Mobility_markerset:RASIS			Mobility_markerset:RTH1			Mobility_markerset:RTH2			Mobility_markerset:RTH3			Mobility_markerset:RTH4			Mobility_markerset:RLFE			Mobility_markerset:RMFE			Mobility_markerset:RSH1			Mobility_markerset:RSH2			Mobility_markerset:RSH3			Mobility_markerset:RSH4			Mobility_markerset:RLMAL			Mobility_markerset:RMMAL			Mobility_markerset:RCAL			Mobility_markerset:RMTP1			Mobility_markerset:RTOE			Mobility_markerset:RMTP5		
		X1	Y1	Z1	X2	Y2	Z2	X3	Y3	Z3	X4	Y4	Z4	X5	Y5	Z5	X6	Y6	Z6	X7	Y7	Z7	X8	Y8	Z8	X9	Y9	Z9	X10	Y10	Z10	X11	Y11	Z11	X12	Y12	Z12	X13	Y13	Z13	X14	Y14	Z14	X15	Y15	Z15	X16	Y16	Z16	X17	Y17	Z17	X18	Y18	Z18	X19	Y19	Z19	X20	Y20	Z20	X21	Y21	Z21	X22	Y22	Z22	X23	Y23	Z23	X24	Y24	Z24	X25	Y25	Z25	X26	Y26	Z26	X27	Y27	Z27	X28	Y28	Z28	X29	Y29	Z29	X30	Y30	Z30	X31	Y31	Z31	X32	Y32	Z32	X33	Y33	Z33	X34	Y34	Z34	X35	Y35	Z35	X36	Y36	Z36

849	7.06667	0.00000	0.00000	0.00000	-3872.12573	1004.63904	720.42102	0.00000	0.00000	0.00000	-3804.81909	636.75433	621.29163	-3832.18091	683.80157	669.97565	-3842.47876	640.46136	656.10529	0.00000	0.00000	0.00000	0.00000	0.00000	0.00000	-3818.91113	378.86536	544.05621	0.00000	0.00000	0.00000	-3869.84521	357.68329	570.74615	0.00000	0.00000	0.00000	-3798.04468	101.57021	454.29486	-3836.87402	108.05833	376.67972	0.00000	0.00000	0.00000	0.00000	0.00000	0.00000	-3964.23706	62.18464	492.26422	0.00000	0.00000	0.00000	-3931.66895	1052.55835	416.92456	-4096.64795	987.85303	587.87970	-4182.86670	689.92157	476.94339	-4193.49463	649.94885	491.69095	-4202.63232	708.01031	533.70117	-4210.80566	666.18878	538.33887	-4219.62695	529.43719	571.69873	0.00000	0.00000	0.00000	-4249.43408	326.02725	515.84174	-4265.30615	284.90555	526.09955	-4278.58936	343.49982	566.13367	-4292.02002	300.78824	569.72058	-4315.01904	116.26999	595.17853	0.00000	0.00000	0.00000	-4261.09375	64.53209	581.76953	-4309.74170	128.43095	778.77032	-4358.12988	157.80072	779.79425	-4405.34473	107.38165	719.27429
850	7.07500	0.00000	0.00000	0.00000	-3876.46558	1003.85156	722.68195	0.00000	0.00000	0.00000	-3808.24658	636.66858	622.68060	-3835.76587	683.54907	671.43372	-3845.93750	640.11670	657.57867	0.00000	0.00000	0.00000	0.00000	0.00000	0.00000	-3821.19238	378.80191	545.28107	0.00000	0.00000	0.00000	-3872.09302	357.27307	572.01202	0.00000	0.00000	0.00000	-3798.56836	102.12230	454.45822	-3836.98047	107.87910	376.85684	0.00000	0.00000	0.00000	-3904.40137	38.63255	535.04834	-3964.33716	62.09790	492.24710	0.00000	0.00000	0.00000	-3939.55469	1052.47485	419.76480	-4102.56836	986.38458	592.32690	-4189.05566	689.60260	482.13312	-4199.51123	649.70685	497.03540	-4208.05469	707.78162	539.18250	-4216.15967	665.87634	543.93738	-4224.33398	528.76050	577.79138	0.00000	0.00000	0.00000	-4254.73828	324.70349	524.80194	-4270.39209	283.64481	535.50006	-4283.27148	342.39453	575.36761	-4296.63965	299.76614	579.40820	-4318.96338	115.23628	606.52521	0.00000	0.00000	0.00000	-4264.99219	63.23987	592.53210	-4309.23779	128.94203	789.78156	-4358.30078	158.91835	791.83051	-4406.36279	106.85518	733.08618
851	7.08333	0.00000	0.00000	0.00000	-3880.98804	1003.09351	725.01251	0.00000	0.00000	0.00000	-3811.76440	636.94104	623.68549	-3839.62354	683.12988	673.00250	-3849.54858	639.76440	659.17505	0.00000	0.00000	0.00000	0.00000	0.00000	0.00000	-3823.46045	378.78384	546.37402	0.00000	0.00000	0.00000	-3874.35815	356.97116	573.05865	0.00000	0.00000	0.00000	-3799.07373	102.64210	454.55273	-3837.58447	108.41283	376.92902	0.00000	0.00000	0.00000	-3906.43750	40.68019	536.84833	-3964.25854	62.05035	492.52982	0.00000	0.00000	0.00000	-3947.83667	1052.56116	423.23599	-4108.50781	985.02612	596.80176	-4195.10645	689.44666	487.30945	-4205.50195	649.53406	502.32022	-4213.52344	707.59296	544.45721	-4221.67383	665.74780	549.35760	-4228.83350	528.07690	584.73102	0.00000	0.00000	0.00000	-4259.36084	323.52652	533.52063	-4274.75635	282.46786	544.43005	-4287.48633	341.23004	584.39136	-4300.55713	298.48871	588.58209	-4322.02588	113.94850	616.43616	0.00000	0.00000	0.00000	-4268.43750	62.11521	601.42010	-4307.45215	127.74987	799.37286	-4356.74561	157.70380	802.82648	-4406.14111	105.32576	745.42572
852	7.09167	0.00000	0.00000	0.00000	-3885.94385	1002.47595	727.30499	0.00000	0.00000	0.00000	-3816.04517	636.05255	625.69446	-3843.56079	682.71088	674.67426	-3853.39868	639.30194	660.88208	0.00000	0.00000	0.00000	0.00000	0.00000	0.00000	-3825.98267	378.69650	547.62183	-3816.23926	334.40482	535.46442	-3876.93945	356.62085	574.33856	0.00000	0.00000	0.00000	-3799.62280	103.18998	454.74731	-3838.91528	109.75178	376.87509	-3755.09814	88.86552	374.23767	-3906.64966	40.92958	537.08276	-3964.43896	61.95129	492.55322	0.00000	0.00000	0.00000	-3955.33911	1052.40808	426.36105	-4114.86035	984.10370	601.40289	-4200.82910	689.21771	492.62009	-4211.26807	649.32446	507.74203	-4219.19482	707.52771	549.72583	-4227.44580	665.72369	554.72253	-4233.15283	527.37732	592.54871	0.00000	0.00000	0.00000	-4263.42969	322.44769	541.80914	-4278.49121	281.22736	552.79315	-4291.04980	339.82236	593.08569	-4303.82422	296.96924	597.32513	-4324.24463	112.40043	625.15173	0.00000	0.00000	0.00000	-4270.91650	60.63799	608.65808	-4304.28174	125.20044	807.53040	-4353.48975	154.94992	812.32263	-4404.65527	102.87447	756.54913
